<svg width="48" height="48" viewBox="0 0 48 48" fill="none" xmlns="http://www.w3.org/2000/svg">
<path d="M6.95317 36.2215L14.4892 35.7862L17.3377 39.3173L10.152 39.7325C9.80172 39.4253 9.45931 39.1063 9.12682 38.7738C8.32262 37.9698 7.59889 37.1153 6.95317 36.2215ZM11.7536 28.1244L14.1118 23.0714C15.3556 23.8512 16.5254 24.7679 17.6021 25.814L14.7743 31.8688L11.7536 28.1244ZM9.5731 29.6925L12.4188 33.2198L5.35406 33.6278C4.75013 32.4649 4.26269 31.2568 3.89151 30.0206L9.5731 29.6925ZM5.21027 20.0136C7.49296 20.2495 9.69538 20.8522 11.7484 21.7942L9.87889 25.8005L5.21027 20.0136ZM3.0031 23.9662C3.0031 23.21 3.04531 22.454 3.12662 21.7015L7.50269 27.1259L3.28013 27.3698C3.096 26.2437 3.0031 25.1052 3.0031 23.9662ZM19.7129 37.9907L16.6488 34.1925L19.5501 27.9806C20.651 29.3904 21.5565 30.9225 22.2554 32.5421L19.7129 37.9907ZM21.7552 44.793C18.8801 44.4978 16.1319 43.6201 13.6494 42.2165L19.4081 41.8838L21.7552 44.793ZM23.9584 40.8386C23.9584 41.6004 23.9164 42.3556 23.8365 43.1023L21.5878 40.3147L23.4654 36.291C23.7908 37.7676 23.9584 39.2902 23.9584 40.8386ZM19.9483 23.9083C15.7094 19.6694 10.1609 17.2156 4.21531 16.9247C3.81786 16.9052 3.41855 16.8955 3.01779 16.8955C2.35344 16.8955 1.69344 16.9241 1.03862 16.9772C0.729927 17.9941 0.490134 19.0276 0.319444 20.0703C-0.883866 27.4251 1.34358 35.2371 7.00344 40.8969C11.2457 45.1391 16.7992 47.5934 22.7501 47.8811C23.143 47.9002 23.5378 47.9099 23.934 47.9099C24.6041 47.9099 25.2699 47.8809 25.9305 47.8267C26.2372 46.8169 26.4755 45.7836 26.6464 44.733C26.8537 43.4575 26.9613 42.1565 26.9613 40.8386C26.9613 34.4432 24.4707 28.4306 19.9483 23.9083Z" fill="#3F9F45"/>
<path d="M24.7123 47.893C24.7121 47.8941 24.7119 47.8951 24.7119 47.8961C24.7785 47.8938 24.8452 47.8912 24.912 47.8887C24.8456 47.8916 24.7787 47.8907 24.7123 47.893Z" fill="#226039"/>
<path d="M44.6004 27.3699L40.3777 27.1259L44.7537 21.7015C44.835 22.454 44.8772 23.21 44.8772 23.9662C44.8772 25.1052 44.7843 26.2437 44.6004 27.3699ZM42.5265 33.6279L35.4616 33.2199L38.3072 29.6925L43.9888 30.0206C43.6177 31.2568 43.1302 32.4649 42.5265 33.6279ZM38.7537 38.7738C38.421 39.1063 38.0788 39.4253 37.7283 39.7325L30.5426 39.3173L33.3912 35.7862L40.9272 36.2215C40.2814 37.1153 39.5577 37.9698 38.7537 38.7738ZM30.2782 25.814C31.3549 24.7679 32.5247 23.8512 33.7686 23.0714L36.1268 28.1244L33.1061 31.8688L30.2782 25.814ZM42.6701 20.0136L38.0017 25.8005L36.1319 21.7942C38.185 20.8522 40.3874 20.2495 42.6701 20.0136ZM47.5609 20.0703C47.3902 19.0276 47.1504 17.9941 46.8417 16.9772C46.1869 16.9241 45.5269 16.8955 44.8626 16.8955C44.4618 16.8955 44.0625 16.9052 43.665 16.9247C37.7194 17.2156 32.1709 19.6694 27.932 23.9083C27.0663 24.7741 26.2793 25.6969 25.5674 26.665C26.1674 27.6156 26.7037 28.6011 27.1756 29.6151C27.5327 29.0544 27.9177 28.509 28.3305 27.9806L31.2316 34.1925L29.3046 36.5813C29.5274 37.9762 29.643 39.3986 29.643 40.8386C29.643 41.2085 29.635 41.5793 29.6195 41.9501L34.231 42.2165C32.72 43.0708 31.1101 43.729 29.4337 44.1808C29.3927 44.5094 29.3463 44.8373 29.2932 45.1636C29.1701 45.9219 29.0106 46.6741 28.8237 47.4146C33.3591 46.4809 37.527 44.2468 40.8769 40.897C46.537 35.2371 48.7642 27.4251 47.5609 20.0703Z" fill="#226039"/>
<path d="M36.617 11.2832C33.229 7.89529 28.7245 6.02929 23.9332 6.02929C19.1417 6.02929 14.6373 7.89529 11.2492 11.2832C10.1752 12.357 9.26918 13.5361 8.52539 14.7862C9.55222 15.0024 10.5629 15.2782 11.5523 15.6127C12.0782 14.834 12.6844 14.0943 13.3724 13.4064C16.1934 10.5856 19.9438 9.03198 23.9332 9.03198C27.9224 9.03198 31.673 10.5856 34.4938 13.4064C35.1714 14.084 35.7741 14.816 36.3 15.5918C37.2935 15.2587 38.3081 14.9848 39.3389 14.7709C38.5873 13.5163 37.6781 12.3442 36.617 11.2832Z" fill="#FFB800"/>
<path d="M32.3698 15.5286C30.1163 13.2749 27.1198 12.0337 23.9325 12.0337C20.7453 12.0337 17.7488 13.2749 15.4951 15.5286C15.1014 15.9221 14.7412 16.3374 14.4141 16.77C15.3319 17.2051 16.225 17.6931 17.0896 18.2323C17.2562 18.0331 17.4312 17.8388 17.6183 17.6518C19.3049 15.9651 21.5474 15.0364 23.9325 15.0364C26.3176 15.0364 28.5602 15.9651 30.2466 17.6518C30.4231 17.8282 30.589 18.012 30.7485 18.2C31.6148 17.6625 32.5101 17.1761 33.4295 16.7427C33.1065 16.3183 32.7536 15.9122 32.3698 15.5286Z" fill="#FFB800"/>
<path d="M28.1255 19.7754C27.0062 18.6561 25.5178 18.0396 23.9346 18.0396C22.3515 18.0396 20.8631 18.6561 19.7435 19.7754C19.6794 19.8398 19.6192 19.9064 19.5586 19.973C20.3392 20.5929 21.0882 21.2593 21.8022 21.9702C21.8241 21.9466 21.844 21.9215 21.8669 21.8988C22.4193 21.3464 23.1536 21.0422 23.9346 21.0422C24.7157 21.0422 25.45 21.3464 26.0022 21.8988C26.0123 21.9087 26.0206 21.9199 26.0305 21.9298C26.7457 21.2208 27.496 20.5556 28.2776 19.9376C28.2271 19.8834 28.1781 19.8282 28.1255 19.7754Z" fill="#FFB800"/>
<path d="M45.8244 14.2385C44.6453 11.5877 42.9763 9.14923 40.8632 7.0362C36.3411 2.51406 30.3283 0.0234375 23.9329 0.0234375C17.5373 0.0234375 11.5247 2.51406 7.00233 7.0362C4.86343 9.1753 3.21736 11.6223 2.05957 14.2354C2.82902 14.2079 3.59123 14.2097 4.34516 14.2465C4.68095 14.2629 5.01529 14.2873 5.34881 14.3163C6.31129 12.4581 7.56964 10.7154 9.12571 9.15958C13.0807 5.20433 18.3394 3.02613 23.9329 3.02613C29.5261 3.02613 34.785 5.20433 38.74 9.15958C40.2783 10.6979 41.5474 12.4335 42.5244 14.3092C42.8298 14.2836 43.1358 14.2614 43.4428 14.2465C44.2282 14.2083 45.0223 14.2068 45.8244 14.2385Z" fill="#FFB800"/>
</svg>
