<svg width="24" height="24" viewBox="0 0 24 24" fill="none" xmlns="http://www.w3.org/2000/svg">
<path d="M3.47659 18.1107L7.24459 17.8931L8.66887 19.6586L5.07601 19.8663C4.90087 19.7126 4.72966 19.5531 4.56342 19.3869C4.16132 18.9849 3.79945 18.5576 3.47659 18.1107ZM5.8768 14.0622L7.0559 11.5357C7.67783 11.9256 8.26273 12.384 8.80107 12.907L7.38714 15.9344L5.8768 14.0622ZM4.78656 14.8462L6.20939 16.6099L2.67704 16.8139C2.37507 16.2324 2.13135 15.6284 1.94576 15.0103L4.78656 14.8462ZM2.60514 10.0068C3.74649 10.1248 4.8477 10.4261 5.87421 10.8971L4.93945 12.9003L2.60514 10.0068ZM1.50156 11.9831C1.50156 11.605 1.52266 11.227 1.56332 10.8508L3.75135 13.563L1.64007 13.6849C1.54801 13.1219 1.50156 12.5526 1.50156 11.9831ZM9.85645 18.9953L8.32438 17.0962L9.77504 13.9903C10.3255 14.6952 10.7783 15.4612 11.1277 16.271L9.85645 18.9953ZM10.8776 22.3965C9.44007 22.2489 8.06597 21.8101 6.8247 21.1083L9.70407 20.9419L10.8776 22.3965ZM11.9792 20.4193C11.9792 20.8002 11.9582 21.1778 11.9183 21.5511L10.7939 20.1574L11.7327 18.1455C11.8954 18.8838 11.9792 19.6451 11.9792 20.4193ZM9.97418 11.9541C7.85473 9.83468 5.08045 8.60779 2.10766 8.46234C1.90894 8.45262 1.70928 8.44775 1.5089 8.44775C1.17673 8.44775 0.84673 8.46203 0.519316 8.48862C0.364971 8.99706 0.245074 9.51379 0.15973 10.0352C-0.441926 13.7125 0.671799 17.6185 3.50173 20.4485C5.62283 22.5696 8.39959 23.7967 11.3751 23.9406C11.5715 23.9501 11.7689 23.955 11.967 23.955C12.3021 23.955 12.635 23.9405 12.9653 23.9134C13.1186 23.4084 13.2378 22.8918 13.3232 22.3665C13.4269 21.7287 13.4807 21.0783 13.4807 20.4193C13.4807 17.2216 12.2354 14.2153 9.97418 11.9541Z" fill="#242222"/>
<path d="M12.3562 23.9465C12.3561 23.947 12.356 23.9475 12.356 23.9481C12.3893 23.9469 12.4226 23.9456 12.456 23.9443C12.4228 23.9458 12.3894 23.9454 12.3562 23.9465Z" fill="#242222"/>
<path d="M22.3002 13.6849L20.1888 13.563L22.3769 10.8508C22.4175 11.227 22.4386 11.605 22.4386 11.9831C22.4386 12.5526 22.3922 13.1219 22.3002 13.6849ZM21.2632 16.8139L17.7308 16.6099L19.1536 14.8462L21.9944 15.0103C21.8088 15.6284 21.5651 16.2324 21.2632 16.8139ZM19.3769 19.3869C19.2105 19.5531 19.0394 19.7127 18.8642 19.8663L15.2713 19.6587L16.6956 17.8931L20.4636 18.1108C20.1407 18.5577 19.7789 18.9849 19.3769 19.3869ZM15.1391 12.907C15.6774 12.384 16.2623 11.9256 16.8843 11.5357L18.0634 14.0622L16.553 15.9344L15.1391 12.907ZM21.335 10.0068L19.0008 12.9003L18.066 10.8971C19.0925 10.4261 20.1937 10.1248 21.335 10.0068ZM23.7804 10.0352C23.6951 9.51379 23.5752 8.99706 23.4209 8.48862C23.0934 8.46203 22.7634 8.44775 22.4313 8.44775C22.2309 8.44775 22.0312 8.45262 21.8325 8.46234C18.8597 8.60779 16.0854 9.83468 13.966 11.9541C13.5332 12.3871 13.1397 12.8484 12.7837 13.3325C13.0837 13.8078 13.3518 14.3005 13.5878 14.8075C13.7663 14.5272 13.9589 14.2545 14.1652 13.9903L15.6158 17.0962L14.6523 18.2907C14.7637 18.9881 14.8215 19.6993 14.8215 20.4193C14.8215 20.6043 14.8175 20.7897 14.8097 20.975L17.1155 21.1083C16.36 21.5354 15.5551 21.8645 14.7168 22.0904C14.6963 22.2547 14.6732 22.4187 14.6466 22.5818C14.585 22.9609 14.5053 23.3371 14.4119 23.7073C16.6796 23.2404 18.7635 22.1234 20.4384 20.4485C23.2685 17.6185 24.3821 13.7125 23.7804 10.0352Z" fill="#242222"/>
<path d="M18.3085 5.64161C16.6145 3.94765 14.3622 3.01465 11.9666 3.01465C9.57083 3.01465 7.31866 3.94765 5.62459 5.64161C5.08759 6.17851 4.63459 6.76806 4.2627 7.39309C4.77611 7.5012 5.28145 7.63909 5.77614 7.80637C6.03911 7.41699 6.34221 7.04716 6.68618 6.7032C8.09669 5.29279 9.9719 4.51599 11.9666 4.51599C13.9612 4.51599 15.8365 5.29279 17.2469 6.7032C17.5857 7.04199 17.887 7.40799 18.15 7.79592C18.6468 7.62937 19.1541 7.49241 19.6695 7.38544C19.2936 6.75813 18.8391 6.1721 18.3085 5.64161Z" fill="#242222"/>
<path d="M16.1849 7.7643C15.0581 6.63743 13.5599 6.01685 11.9663 6.01685C10.3727 6.01685 8.87441 6.63743 7.74755 7.7643C7.55069 7.96105 7.37058 8.16868 7.20703 8.38499C7.66593 8.60254 8.11251 8.84657 8.54482 9.11616C8.6281 9.01654 8.71562 8.9194 8.80913 8.82588C9.65244 7.98257 10.7737 7.51819 11.9663 7.51819C13.1588 7.51819 14.2801 7.98257 15.1233 8.82588C15.2115 8.91412 15.2945 9.00599 15.3743 9.10002C15.8074 8.83126 16.255 8.58806 16.7148 8.37133C16.5533 8.15916 16.3768 7.95609 16.1849 7.7643Z" fill="#242222"/>
<path d="M14.0628 9.88771C13.5031 9.32805 12.7589 9.01978 11.9673 9.01978C11.1757 9.01978 10.4315 9.32805 9.87178 9.88771C9.83971 9.91988 9.80961 9.95319 9.7793 9.9865C10.1696 10.2964 10.5441 10.6296 10.9011 10.9851C10.9121 10.9733 10.922 10.9608 10.9335 10.9494C11.2097 10.6732 11.5768 10.5211 11.9673 10.5211C12.3578 10.5211 12.725 10.6732 13.0011 10.9494C13.0062 10.9544 13.0103 10.9599 13.0153 10.9649C13.3729 10.6104 13.748 10.2778 14.1388 9.96881C14.1136 9.94171 14.0891 9.91409 14.0628 9.88771Z" fill="#242222"/>
<path d="M22.9122 7.11924C22.3226 5.79386 21.4881 4.57462 20.4316 3.5181C18.1705 1.25703 15.1641 0.0117188 11.9664 0.0117188C8.76865 0.0117188 5.76234 1.25703 3.50116 3.5181C2.43172 4.58765 1.60868 5.81113 1.02979 7.11768C1.41451 7.10393 1.79561 7.10486 2.17258 7.12327C2.34047 7.13144 2.50765 7.14365 2.67441 7.15813C3.15565 6.22906 3.78482 5.35772 4.56285 4.57979C6.54037 2.60217 9.16971 1.51306 11.9664 1.51306C14.7631 1.51306 17.3925 2.60217 19.37 4.57979C20.1392 5.34893 20.7737 6.21675 21.2622 7.15461C21.4149 7.14179 21.5679 7.13072 21.7214 7.12327C22.1141 7.10413 22.5111 7.10341 22.9122 7.11924Z" fill="#242222"/>
</svg>
