<svg width="1005" height="782" viewBox="0 0 1005 782" fill="none" xmlns="http://www.w3.org/2000/svg">
<path opacity="0.1" d="M304.533 750.815L304.371 750.615L304.115 750.63L145.894 759.781L145.923 760.28L145.517 760.573C159.09 779.384 174.302 797.368 191.206 814.289C198.194 821.287 205.392 828.001 212.753 834.467L212.907 834.602L213.112 834.59L363.979 825.861L364.949 825.805L364.339 825.048L304.533 750.815ZM296.486 483.408L296.006 483.107L295.767 483.621L246.256 589.848L246.709 590.059L246.32 590.373L309.74 669.09L310.243 669.715L310.582 668.988L369.954 541.7L370.104 541.378L369.85 541.13C347.219 519.115 322.631 499.82 296.486 483.408ZM201.318 622.71L201.157 622.51L200.9 622.525L81.6135 629.423L80.9816 629.46L81.1634 630.066C88.9651 656.084 99.211 681.509 111.905 705.986L112.054 706.273L112.378 706.255L260.703 697.677L261.674 697.621L261.064 696.865L201.318 622.71ZM247.054 457.194L247.266 456.738L246.809 456.528C203.655 436.702 157.362 424.018 109.382 419.054L109.33 419.551L108.941 419.865L206.96 541.52L207.463 542.145L207.802 541.417L247.054 457.194ZM65.9725 454.72L65.2155 453.781L65.086 454.98C63.377 470.817 62.4898 486.728 62.4898 502.643C62.4898 526.614 64.4424 550.577 68.3128 574.277L68.3854 574.722L68.8351 574.696L157.489 569.568L158.459 569.512L157.849 568.755L65.9725 454.72ZM349.031 717.414L348.9 717.696L349.095 717.939L413.428 797.787L413.817 797.473L414.27 797.684L467.652 683.141L467.747 682.937L467.658 682.731C452.968 648.645 433.933 616.4 410.793 586.729L410.291 586.085L409.945 586.825L349.031 717.414ZM456.644 940.972L457.837 941.095L457.085 940.161L407.808 879.003L407.647 878.803L407.39 878.818L286.483 885.812L284.788 885.91L286.265 886.746C338.448 916.287 396.214 934.759 456.644 940.972ZM500.005 905.245L500.763 906.186L500.892 904.984C502.57 889.27 503.453 873.377 503.453 857.343C503.453 824.756 499.931 792.712 493.09 761.634L492.773 760.192L492.149 761.531L452.728 846.119L452.596 846.402L452.792 846.644L500.005 905.245ZM88.416 355.113C213.121 361.222 329.497 412.755 418.407 501.779C513.261 596.756 565.5 723.029 565.5 857.343C565.5 885.022 563.243 912.345 558.895 939.133C555.329 961.086 550.362 982.676 543.979 1003.78C530.233 1004.9 516.381 1005.5 502.441 1005.5C494.13 1005.5 485.85 1005.3 477.609 1004.9C352.791 998.852 236.311 947.311 147.332 858.217C28.6204 739.351 -18.1001 575.287 7.13908 420.823C10.701 399.035 15.6977 377.44 22.1247 356.189C35.7491 355.09 49.4792 354.5 63.2982 354.5C71.7042 354.5 80.0797 354.704 88.416 355.113Z" fill="white" stroke="#242222"/>
<path opacity="0.1" d="M847.287 568.558L846.677 569.315L847.647 569.371L936.229 574.494L936.258 573.995L936.751 574.076C940.614 550.397 942.565 526.456 942.565 502.507C942.565 486.606 941.678 470.71 939.971 454.888L939.841 453.688L939.084 454.628L847.287 568.558ZM744.162 696.55L743.553 697.307L744.523 697.363L892.724 705.933L892.752 705.433L893.196 705.664C905.875 681.21 916.112 655.807 923.907 629.813L924.089 629.207L923.457 629.171L804.274 622.279L804.017 622.264L803.856 622.464L744.162 696.55ZM792.073 834.151L792.277 834.163L792.431 834.027C799.791 827.568 806.978 820.859 813.965 813.868L813.611 813.515L813.965 813.868C830.85 796.962 846.048 778.995 859.609 760.201L860.142 759.462L859.233 759.409L701.149 750.266L700.892 750.252L700.731 750.452L640.977 824.617L640.367 825.373L641.337 825.429L792.073 834.151ZM709.49 483.502L709.251 482.988L708.771 483.29C682.648 499.687 658.082 518.963 635.471 540.959L635.819 541.317L635.366 541.528L694.687 668.699L695.026 669.426L695.529 668.802L758.894 590.157L759.09 589.914L758.958 589.632L709.49 483.502ZM896.154 419.805L896.907 418.87L895.713 418.994C847.775 423.953 801.521 436.626 758.405 456.434L757.948 456.644L758.16 457.1L797.382 541.246L797.721 541.973L798.224 541.348L896.154 419.805ZM570.804 620.115C561.037 599.192 549.966 578.85 537.605 559.212C552.471 538.999 568.898 519.73 586.957 501.644C675.789 412.701 792.064 361.216 916.66 355.112C924.99 354.704 933.358 354.5 941.756 354.5C955.563 354.5 969.281 355.089 982.894 356.187C989.315 377.419 994.308 398.994 997.866 420.762C1023.08 575.085 976.408 738.998 857.795 857.755C787.786 927.852 700.728 974.662 605.988 994.349C609.826 979.034 613.108 963.479 615.65 947.801C616.748 941.052 617.708 934.269 618.558 927.475C653.649 917.976 687.348 904.167 718.983 886.259L720.46 885.423L718.766 885.325L622.521 879.756C622.833 872.126 622.995 864.496 622.995 856.883C622.995 826.687 620.579 796.859 615.924 767.606L656.208 717.606L656.403 717.363L656.272 717.081L595.415 586.612L595.07 585.872L594.568 586.516C586.088 597.385 578.165 608.596 570.804 620.115Z" fill="white" stroke="#242222"/>
<path opacity="0.1" d="M502.337 127.118C602.783 127.118 697.214 166.235 768.239 237.26L768.592 236.907L768.239 237.26C790.315 259.332 809.252 283.698 824.939 309.773C803.644 314.22 782.677 319.887 762.139 326.758C751.132 310.561 738.531 295.277 724.377 281.122C665.069 221.814 586.21 189.149 502.337 189.149C418.461 189.149 339.606 221.814 280.294 281.122C265.923 295.493 253.248 310.937 242.24 327.195C221.787 320.295 200.902 314.59 179.689 310.095C195.214 284.112 214.089 259.599 236.432 237.26L236.105 236.934L236.432 237.26C307.461 166.235 401.888 127.118 502.337 127.118Z" fill="white" stroke="#242222"/>
<path opacity="0.1" d="M325.561 326.378L325.561 326.378C372.777 279.162 435.551 253.16 502.324 253.16C569.097 253.16 631.871 279.162 679.083 326.378L679.436 326.024L679.083 326.378C686.975 334.266 694.245 342.609 700.909 351.322C681.917 360.301 663.417 370.356 645.506 381.451C642.236 377.61 638.835 373.853 635.221 370.24C599.726 334.741 552.524 315.192 502.324 315.192C452.124 315.192 404.922 334.741 369.423 370.24C365.589 374.074 361.996 378.051 358.576 382.126C340.699 370.998 322.242 360.908 303.285 351.895C310.038 343.008 317.461 334.473 325.561 326.378Z" fill="white" stroke="#242222"/>
<path opacity="0.1" d="M457.584 460.519C442.823 445.849 427.352 432.083 411.237 419.261C412.389 417.995 413.533 416.74 414.744 415.526C438.151 392.123 469.268 379.234 502.369 379.234C535.47 379.234 566.587 392.124 589.989 415.526C590.762 416.302 591.494 417.099 592.234 417.905C592.422 418.11 592.611 418.315 592.801 418.521C576.666 431.303 561.171 445.043 546.385 459.673C546.305 459.583 546.217 459.485 546.121 459.39C546.12 459.39 546.12 459.389 546.119 459.389L545.769 459.746M457.584 460.519C457.702 460.637 457.821 460.755 457.939 460.872C458.005 460.797 458.071 460.722 458.137 460.647C458.405 460.341 458.672 460.035 458.963 459.746C470.56 448.15 485.973 441.765 502.369 441.765C518.764 441.765 534.178 448.15 545.769 459.746M457.584 460.519C457.634 460.462 457.685 460.403 457.737 460.345C458.017 460.024 458.313 459.687 458.611 459.391M457.584 460.519L458.611 459.391M545.769 459.746C545.861 459.836 545.946 459.93 546.029 460.026L545.769 459.746ZM458.611 459.391C458.611 459.391 458.611 459.391 458.612 459.391L458.963 459.746L458.61 459.392C458.61 459.392 458.61 459.392 458.611 459.391Z" fill="white" stroke="#242222"/>
<path opacity="0.1" d="M857.375 148.108C901.493 192.226 936.38 243.108 961.088 298.412C944.509 297.779 928.094 297.821 911.854 298.612C905.513 298.92 899.193 299.375 892.889 299.902C872.378 260.595 845.759 224.22 813.513 191.974C730.396 108.853 619.876 63.0759 502.331 63.0759C384.782 63.0759 274.266 108.853 191.149 191.974C158.531 224.588 132.137 261.109 111.929 300.049C105.034 299.453 98.12 298.951 91.1752 298.612C75.5945 297.851 59.847 297.801 43.9538 298.35C68.2162 243.825 102.628 192.767 147.283 148.108C242.121 53.274 368.209 1.04417 502.331 1.04417C636.449 1.04417 762.541 53.274 857.375 148.108Z" fill="white" stroke="#242222"/>
</svg>
